<?xml version="1.0" encoding="UTF-8" standalone="no"?>
<!DOCTYPE svg PUBLIC "-//W3C//DTD SVG 1.1//EN" "http://www.w3.org/Graphics/SVG/1.1/DTD/svg11.dtd">
<svg width="100%" height="100%" viewBox="0 0 256 256" version="1.1" xmlns="http://www.w3.org/2000/svg" xmlns:xlink="http://www.w3.org/1999/xlink" xml:space="preserve" xmlns:serif="http://www.serif.com/" style="fill-rule:evenodd;clip-rule:evenodd;stroke-linejoin:round;stroke-miterlimit:2;">
    <g transform="matrix(1.7886,0,0,2.16209,-100.804,-20.9616)">
        <path d="M128.013,68.897L68.366,40.381L68.366,90.385L128.024,122.363L128.013,68.897Z" style="fill:rgb(235,235,235);"/>
    </g>
    <g transform="matrix(1.7886,0,0,2.16209,-100.804,-20.9616)">
        <path d="M187.66,40.381L128.013,68.897L128.024,122.363L187.66,87.461L187.66,40.381Z" style="fill:rgb(133,133,133);"/>
    </g>
    <g transform="matrix(1.7886,0,0,2.16209,-100.804,-20.9616)">
        <path d="M128.024,122.363L136.158,122.363L191.545,89.515L191.545,65.822L187.66,63.125L187.66,87.461L128.024,122.363Z" style="fill:rgb(109,109,109);fill-opacity:0.4;"/>
    </g>
    <g transform="matrix(1.7886,0,0,2.16209,-100.804,-20.9616)">
        <path d="M128.013,15.432L68.366,40.381L128.013,68.897L187.66,40.381L128.013,15.432Z" style="fill:white;"/>
    </g>
</svg>
